<svg width="25" height="24" viewBox="0 0 25 24" fill="none" xmlns="http://www.w3.org/2000/svg">
<path d="M25 12.073C25 5.40365 19.4052 0 12.5 0C5.59476 0 0 5.40365 0 12.073C0 18.0988 4.57107 23.0935 10.5469 24L10.5469 15.563H7.37147L7.37147 12.073H10.5469L10.5469 9.41306C10.5469 6.38751 12.4118 4.71627 15.2681 4.71627C16.6361 4.71627 18.0665 4.95189 18.0665 4.95189L18.0665 7.92146H16.4899C14.9375 7.92146 14.4531 8.85225 14.4531 9.8069L14.4531 12.073H17.9199L17.3654 15.563H14.4531L14.4531 24C20.4289 23.0935 25 18.0988 25 12.073Z" fill="white" fill-opacity="0.85"/>
</svg>
