<svg width="131" height="21" viewBox="0 0 131 21" fill="none" xmlns="http://www.w3.org/2000/svg">
<g clip-path="url(#clip0_100_48)">
<path d="M11.5751 0.393616H23.7461C23.7387 0.553394 23.6831 0.707275 23.5864 0.835269C23.1744 1.5366 22.8036 2.26655 22.3988 2.96788C21.8261 3.97489 21.2904 5.0003 20.7085 6.00323C20.3397 6.725 19.9236 7.42429 19.5301 8.13379C17.1651 8.13379 14.8001 8.13379 12.4351 8.13379C12.3115 8.13379 12.189 8.13993 12.0654 8.14708C11.9623 8.41698 11.7914 8.65315 11.6533 8.90669C11.4731 9.19703 11.3268 9.5068 11.1486 9.79715C10.9601 10.1877 10.6995 10.5373 10.51 10.9268C10.1186 11.5863 9.7529 12.2559 9.36972 12.9225C8.97007 13.604 8.57934 14.2951 8.19753 14.9958C8.03595 15.2441 7.88709 15.5004 7.75152 15.7636C6.95118 17.1458 6.17658 18.5402 5.37521 19.9214C5.30723 20.0699 5.2177 20.2077 5.10946 20.3304C3.73949 20.3212 2.36953 20.3304 0.999572 20.3304C0.83084 20.3336 0.663109 20.3569 0.5 20.3999C0.5 20.0237 0.753391 19.7221 0.924379 19.4062C1.13039 18.9819 1.40541 18.5883 1.61245 18.163C3.25434 15.2473 4.87873 12.3213 6.51547 9.40355C6.88628 8.76969 7.20457 8.12255 7.57744 7.50096C8.04303 6.68309 8.47668 5.84681 8.96183 5.03813C9.11633 4.69974 9.3244 4.38996 9.49436 4.05975C10.098 2.99344 10.6902 1.921 11.2918 0.854694C11.3632 0.688167 11.4586 0.532844 11.5751 0.393616Z" fill="black"/>
<path d="M25.6785 4.68643C26.4891 3.2807 27.272 1.85964 28.094 0.460052H32.4902C32.5542 0.463268 32.6178 0.473206 32.6797 0.489701C32.5335 0.709505 32.4109 0.9426 32.2821 1.17161C31.2219 3.06022 30.1647 4.94985 29.1106 6.84051C28.6677 7.61034 28.2557 8.39754 27.8066 9.16328L27.7623 9.17862L27.754 9.27472C25.6871 12.9552 23.627 16.6383 21.5738 20.3242C17.538 20.3283 13.502 20.3283 9.46558 20.3242C9.69528 19.8478 9.96721 19.3929 10.2227 18.9298C11.3722 16.8319 12.5516 14.7524 13.6846 12.6546C16.1643 12.6505 18.644 12.6505 21.1236 12.6546C22.6553 10.0067 24.154 7.33839 25.6744 4.68643H25.6785Z" fill="black"/>
<path d="M71.0488 0.405884V20.5665H74.5685V6.38967L80.9888 15.7268L87.3575 6.16782V20.5665H90.9802V0.405884H87.0836L81.0145 9.7123L74.8775 0.405884H71.0488Z" fill="black"/>
<path d="M54.5857 5.6055H56.8858V20.7362H54.5857V5.6055Z" fill="black"/>
<path d="M54.3879 0H57.0836V2.53848H54.3879V0Z" fill="black"/>
<path d="M61.281 1.26974H63.6841V5.60551H68.4223V7.7187H63.6841V16.7072C63.6799 17.0535 63.7609 17.3956 63.92 17.704C64.3268 18.4707 65.4321 19.3806 68.4223 18.3174V20.2762C68.4223 20.2762 65.6927 21.8097 63.2206 20.4132C63.2206 20.4132 61.9927 19.8959 61.4767 18.1497C61.3426 17.6819 61.2767 17.1975 61.281 16.7113V7.68496L59.2549 7.7187V5.60551H61.2975L61.281 1.26974Z" fill="black"/>
<path d="M94.6885 0.405884V20.7025H109.967V17.431H98.4142V12.0463H108.594V8.82592H98.3966V3.69784H109.848V0.405884H94.6885Z" fill="black"/>
<path d="M111.401 0.405884H115.753L120.749 7.53163L125.705 0.405884H130.057L122.95 10.3042L130.5 20.6851H125.916L120.766 13.1034L115.367 20.7025H111.015L118.457 10.3942L111.401 0.405884Z" fill="black"/>
<path d="M47.5464 10.1723C47.5464 10.1723 50.9116 8.91175 50.7056 5.28243C50.7056 5.28243 50.6777 1.79214 46.7183 0.714587C46.0599 0.539511 45.3809 0.452862 44.6994 0.456956H35.2034L35.2291 20.6176H45.4523C45.4523 20.6176 51.4348 20.4898 51.8561 15.1992C51.8561 15.1992 52.2846 11.5014 47.5464 10.1723ZM37.658 2.53845H43.7188C48.4734 2.52209 48.3365 5.84472 48.3365 5.84472C48.4075 9.63558 44.0442 9.5589 44.0442 9.5589H37.658V2.53845ZM45.0743 18.487H37.658V11.4676H44.7488C49.5035 11.4502 49.3665 14.7729 49.3665 14.7729C49.4376 18.5637 45.0743 18.487 45.0743 18.487Z" fill="black"/>
</g>
<defs>
<clipPath id="clip0_100_48">
<rect width="130" height="21" fill="white" transform="translate(0.5)"/>
</clipPath>
</defs>
</svg>
