<svg width="126" height="27" viewBox="0 0 126 27" fill="none" xmlns="http://www.w3.org/2000/svg">
<path d="M26.2152 16.6482C24.4713 23.5941 17.4118 27.8398 10.3873 26.1023C3.41031 24.3662 -0.854425 17.3382 0.890874 10.345C2.63478 3.39916 9.69422 -0.846552 16.7187 0.890962C23.6957 2.62708 27.9605 9.65504 26.2152 16.6482Z" fill="black"/>
<path d="M19.3031 11.6331C19.5617 9.89701 18.237 8.96217 16.4288 8.35286L17.0101 6.00464L15.589 5.65129L15.0077 7.93274L13.8451 7.67538L14.4264 5.39393L13.0052 5.04059L12.4239 7.38881L11.5199 7.16345L9.56355 6.68073L9.17649 8.19149L10.2105 8.44885C10.4112 8.47161 10.5948 8.57209 10.7216 8.72854C10.8484 8.885 10.9083 9.08486 10.8882 9.28491L10.2105 11.9559C10.2427 11.9559 10.3083 11.9879 10.3726 11.9879C10.3405 11.9879 10.2748 11.9559 10.2105 11.9559L9.2743 15.6869C9.21002 15.8482 9.01579 16.1376 8.62872 16.0402C8.62872 16.0722 7.59468 15.7829 7.59468 15.7829L6.896 17.4244L8.76845 17.8751L9.8025 18.1325L9.2212 20.4974L10.6423 20.8507L11.2236 18.5025L12.3415 18.7919L11.7602 21.1401L13.1813 21.4934L13.7626 19.1285C16.2178 19.5792 18.0246 19.4179 18.8015 17.199C19.4163 15.4323 18.7693 14.4168 17.4768 13.7254C18.4466 13.5306 19.1257 12.9213 19.3185 11.6345L19.3031 11.6331ZM16.0403 16.2322C15.5876 17.9989 12.6168 17.0363 11.647 16.8109L12.4225 13.66C13.3923 13.8854 16.4931 14.3556 16.0557 16.2336L16.0403 16.2322ZM16.4931 11.6331C16.106 13.2413 13.5865 12.4372 12.7789 12.2118L13.4776 9.35029C14.2852 9.57566 16.9011 9.929 16.4819 11.6317L16.4931 11.6331Z" fill="#F8F8FC"/>
<path d="M38.7487 8.35008C39.8148 8.35008 40.705 8.54484 41.4945 8.89679C42.27 9.28213 42.9156 9.76485 43.4005 10.4075C43.9175 11.0502 44.2724 11.7903 44.5183 12.6584C44.7556 13.5612 44.8749 14.4907 44.8733 15.4239C44.8789 16.8909 44.5935 18.3446 44.0335 19.7016C43.5051 21.0073 42.7262 22.198 41.7404 23.2072C40.761 24.2055 39.599 25.0082 38.3169 25.5721C36.9616 26.1582 35.4976 26.454 34.02 26.4402H32.9859C32.5011 26.4402 31.9198 26.3762 31.2742 26.2788L29.2396 25.8935C28.541 25.7321 27.8507 25.4761 27.2051 25.1979L32.9231 1.30407L38.0262 0.5L35.9917 8.99C36.4444 8.79524 36.8636 8.63665 37.3164 8.53927C37.7784 8.40748 38.2569 8.3419 38.7375 8.34452L38.7487 8.35008ZM34.4532 22.4365C35.2287 22.4365 35.9386 22.2418 36.6191 21.8898C37.3034 21.505 37.9065 20.992 38.3951 20.3791C38.88 19.767 39.2671 19.0603 39.5577 18.2562C39.8484 17.4522 39.9769 16.6481 39.9769 15.78C39.9769 14.7186 39.8148 13.9159 39.4599 13.3039C39.105 12.7251 38.458 12.4038 37.5218 12.4038C37.2004 12.4038 36.8231 12.4678 36.327 12.5652C35.831 12.6625 35.3908 12.9185 35.0023 13.2607L32.8364 22.2654C32.965 22.2974 33.0949 22.2974 33.1914 22.3294C33.2878 22.3614 33.387 22.3614 33.5128 22.3934C33.6106 22.3934 33.7713 22.4254 33.8998 22.4254H34.449L34.4532 22.4365ZM50.2154 26.0535H45.3246L49.4468 8.73959H54.3571L50.2154 26.0535ZM52.5741 6.63066C51.9084 6.63949 51.2593 6.42375 50.7324 6.01857C50.1832 5.60123 49.894 4.98914 49.894 4.15447C49.894 3.70375 49.9918 3.25441 50.1846 2.86768C50.3644 2.47118 50.6165 2.11129 50.928 1.80626C51.2495 1.52275 51.6082 1.28407 51.9942 1.09679C52.4134 0.935421 52.8326 0.839432 53.2868 0.839432C53.9525 0.830603 54.6016 1.04634 55.1285 1.45152C55.6776 1.86886 55.9669 2.48095 55.9669 3.31562C55.9669 3.76635 55.8691 4.21568 55.6762 4.60241C55.4965 4.99891 55.2444 5.3588 54.9329 5.66383C54.6422 5.95318 54.2551 6.17854 53.8667 6.35939C53.4782 6.54024 53.059 6.61675 52.5741 6.61675V6.63066ZM58.647 4.44104L63.7837 3.63697L62.5233 8.75072H68.0149L67.013 12.785H61.5535L60.1003 18.8308C59.9823 19.2946 59.9066 19.7681 59.8739 20.2455C59.8432 20.6949 59.906 21.0496 60.036 21.3584C60.0991 21.5227 60.1945 21.6728 60.3167 21.7998C60.4388 21.9269 60.5852 22.0285 60.7473 22.0985C61.1022 22.2599 61.5857 22.3559 62.2005 22.3559C62.7175 22.3559 63.2346 22.2919 63.7376 22.1945C64.2444 22.0999 64.7416 21.9597 65.223 21.7758L65.5779 25.5387C64.8801 25.7847 64.168 25.9886 63.4456 26.1494C62.67 26.3442 61.7659 26.4068 60.6997 26.4068C59.1822 26.4068 58.0168 26.1814 57.1784 25.7321C56.34 25.2828 55.7573 24.6707 55.4038 23.8986C55.0502 23.1265 54.8867 22.2265 54.951 21.2277C54.9832 20.2302 55.1466 19.1688 55.4038 18.0281L58.647 4.44104ZM67.7885 19.1382C67.7908 17.7047 68.0312 16.2814 68.4998 14.9259C68.9614 13.6581 69.663 12.4903 70.5665 11.4857C71.4706 10.4882 72.5689 9.71894 73.8615 9.13745C75.154 8.55596 76.5751 8.2694 78.1583 8.2694C79.1602 8.2694 80.0308 8.36678 80.8077 8.55875C81.5847 8.75072 82.2931 8.97608 82.9401 9.29882L81.2605 13.1244C80.8077 12.9296 80.3564 12.8044 79.905 12.6417C79.4201 12.4803 78.8388 12.4163 78.1611 12.4163C76.5122 12.4163 75.2546 12.963 74.2849 14.0884C73.3151 15.2139 72.8316 16.6926 72.8316 18.5901C72.8316 19.703 73.0901 20.6156 73.575 21.2917C74.0599 21.9872 74.964 22.3211 76.2579 22.3211C76.8771 22.3238 77.4947 22.259 78.0996 22.1277C78.6406 22.0133 79.1703 21.8517 79.6829 21.645L80.0378 25.5679L78.0032 26.2106C77.2598 26.4054 76.3543 26.5 75.3203 26.5C73.9649 26.5 72.8009 26.3052 71.8646 25.9213C70.9727 25.5579 70.1686 25.0098 69.5059 24.3132C68.8862 23.6441 68.4326 22.8399 68.1812 21.965C67.9195 21.0445 67.7892 20.092 67.7941 19.1354L67.7885 19.1382ZM89.4951 26.4903C88.3325 26.4903 87.2985 26.2955 86.4586 25.9755C85.5867 25.6222 84.8754 25.1409 84.3263 24.4968C83.7636 23.8349 83.3355 23.0705 83.0659 22.246C82.7752 21.3779 82.6466 20.4125 82.6466 19.3844C82.6466 18.0656 82.873 16.7469 83.2922 15.4295C83.6983 14.1414 84.3449 12.9411 85.1982 11.8919C86.0366 10.8304 87.0707 9.96239 88.2668 9.3183C89.4616 8.64361 90.8519 8.32087 92.4337 8.32087C93.4683 8.3149 94.4959 8.48909 95.4702 8.83558C96.3422 9.18892 97.0534 9.67025 97.6026 10.3143C98.1652 10.9762 98.5933 11.7407 98.863 12.5652C99.1536 13.4332 99.2822 14.3987 99.2822 15.4267C99.2822 16.7455 99.0866 18.0643 98.6674 19.3816C98.2482 20.699 97.6333 21.8898 96.8256 22.9193C96.018 23.9807 94.9839 24.8167 93.757 25.4928C92.5302 26.1689 91.1076 26.4903 89.4951 26.4903ZM91.9503 12.4052C91.2664 12.4053 90.5998 12.6189 90.0443 13.0159C89.4951 13.4332 89.0424 13.9479 88.6553 14.592C88.2682 15.2361 88.0097 15.9108 87.8169 16.6829C87.624 17.455 87.5262 18.1616 87.5262 18.8391C87.5262 19.9325 87.7218 20.7867 88.0432 21.4127C88.3982 22.0248 89.0452 22.3447 89.9492 22.3447C90.6926 22.3447 91.3047 22.15 91.8552 21.7326C92.4058 21.3153 92.8571 20.8006 93.2442 20.1565C93.6313 19.5124 93.8898 18.8377 94.0826 18.0657C94.2711 17.3621 94.3688 16.6375 94.3733 15.9094C94.3733 14.816 94.2112 13.9619 93.8563 13.3358C93.5013 12.7098 92.8543 12.4038 91.9503 12.4038V12.4052ZM104.615 26.0381H99.7238L103.86 8.73681H108.77L104.615 26.0381ZM106.973 6.61536C106.308 6.62418 105.658 6.40845 105.132 6.00327C104.582 5.58593 104.293 4.97384 104.293 4.13917C104.293 3.68844 104.391 3.23911 104.584 2.85238C104.764 2.45588 105.016 2.09599 105.327 1.79096C105.649 1.50745 106.007 1.26877 106.393 1.08149C106.813 0.920119 107.232 0.82413 107.686 0.82413C108.352 0.815301 109.001 1.03104 109.528 1.43622C110.077 1.85356 110.366 2.46565 110.366 3.30032C110.366 3.75104 110.268 4.20037 110.075 4.5871C109.896 4.98361 109.644 5.3435 109.332 5.64853C109.011 5.93204 108.652 6.17072 108.266 6.358C107.877 6.55276 107.458 6.61536 106.973 6.61536ZM112.3 9.50888L113.527 9.12354L115.044 8.7382C115.662 8.60061 116.288 8.50395 116.918 8.44885L119.277 8.32087C121.862 8.32087 123.637 9.06094 124.606 10.5717C125.576 12.0505 125.769 14.1093 125.124 16.6815L122.863 26.0075H117.952L120.118 16.8749L120.44 15.2027C120.504 14.656 120.504 14.2053 120.407 13.788C120.328 13.3934 120.11 13.0399 119.793 12.7905C119.468 12.5332 118.985 12.4052 118.307 12.4052C117.662 12.4052 117.015 12.4692 116.369 12.5999L113.155 25.9783H108.245L112.3 9.50888Z" fill="black"/>
</svg>
