<svg width="123" height="33" viewBox="0 0 123 33" fill="none" xmlns="http://www.w3.org/2000/svg">
<path d="M16.7443 33C25.9919 33 33.4886 25.6127 33.4886 16.5C33.4886 7.3873 25.9919 0 16.7443 0C7.49667 0 0 7.3873 0 16.5C0 25.6127 7.49667 33 16.7443 33Z" fill="black"/>
<path d="M18.5279 18.0227V18.02C18.4121 18.028 17.8145 18.0625 16.4846 18.0625C15.4213 18.0625 14.6756 18.0333 14.4118 18.02V18.0227C10.3226 17.8449 7.27258 17.1446 7.27258 16.3037C7.27258 15.4654 10.3253 14.7625 14.4118 14.5847V17.325C14.6783 17.3436 15.4455 17.3887 16.5035 17.3887C17.7741 17.3887 18.4094 17.3356 18.5279 17.325V14.5874C22.6089 14.7678 25.6509 15.4681 25.6509 16.3064C25.6509 17.1446 22.6062 17.8449 18.5279 18.0253V18.0227ZM18.5279 14.3035V11.8524H24.2215V8.11472H8.72088V11.8524H14.4145V14.3035C9.78691 14.5131 6.30884 15.415 6.30884 16.4974C6.30884 17.5797 9.7896 18.4816 14.4145 18.6938V26.5512H18.5306V18.6938C23.15 18.4843 26.6227 17.5823 26.6227 16.5C26.6227 15.4203 23.15 14.5158 18.5306 14.3062" fill="#F8F8FC"/>
<path d="M47.7101 9.13602V13.0992H51.6188V16.0729H47.6831V22.1026C47.6831 23.4343 48.4288 24.0842 49.5218 24.0842C50.0682 24.0842 50.7009 23.9145 51.2177 23.6598L52.1949 26.6043C51.1908 26.9996 50.3563 27.1694 49.293 27.1986C46.2187 27.3126 44.2078 25.5857 44.2078 22.1026V16.0729H41.5642V13.0992H44.2078V9.50475L47.7101 9.13602ZM115.099 12.9135L115.357 14.5264C116.45 12.7995 117.915 12.5448 119.352 12.5448C120.817 12.5448 122.225 13.1098 123 13.8738L121.42 16.8741C120.701 16.2799 120.042 15.9668 118.892 15.9668C117.053 15.9668 115.357 16.9298 115.357 19.5056V26.867H111.852V12.9082L115.099 12.9135ZM106.509 18.2641C106.28 16.4523 104.842 15.5451 102.832 15.5451C100.936 15.5451 99.3831 16.4523 98.8662 18.2641H106.509ZM98.8097 21.1238C99.0385 22.8507 100.562 24.0975 103.033 24.0975C104.326 24.0975 106.022 23.6147 106.826 22.795L109.066 24.9756C107.572 26.5035 105.131 27.241 102.974 27.241C98.0909 27.241 95.1862 24.2673 95.1862 19.7947C95.1862 15.5477 98.1178 12.4891 102.716 12.4891C107.456 12.4891 110.418 15.3779 109.871 21.1238H98.8097ZM83.3522 7.05096V14.8076C84.6174 13.1947 86.168 12.7119 87.7778 12.7119C91.7997 12.7119 93.5818 15.4018 93.5818 19.5083V26.8696H90.0768V19.5374C90.0768 16.9881 88.7254 15.9138 86.8572 15.9138C84.787 15.9138 83.3522 17.6407 83.3522 19.7364V26.8723H79.8472V7.05362L83.3522 7.05096ZM74.0432 8.97686V12.9401H77.952V15.9138H74.0163V21.9435C74.0163 23.2751 74.7647 23.9251 75.855 23.9251C76.4014 23.9251 77.0341 23.7553 77.5509 23.5006L78.5281 26.4452C77.524 26.8404 76.6895 27.0102 75.6261 27.0394C72.5519 27.1535 70.5409 25.4239 70.5409 21.9435V15.9138H67.8974V12.9401H70.5409V9.34559L74.0432 8.97686ZM64.3601 18.2641C64.1313 16.4523 62.6938 15.5451 60.6828 15.5451C58.7877 15.5451 57.2344 16.4523 56.7175 18.2641H64.3601ZM56.661 21.1238C56.8898 22.8507 58.4135 24.0975 60.8847 24.0975C62.1769 24.0975 63.8728 23.6147 64.6778 22.795L66.9175 24.9756C65.4234 26.5035 62.9818 27.241 60.8255 27.241C55.9395 27.241 53.0375 24.2673 53.0375 19.7947C53.0375 15.5477 55.9691 12.4891 60.5644 12.4891C65.305 12.4891 68.2635 15.3779 67.7197 21.1238H56.661Z" fill="black"/>
</svg>
