<svg width="126" height="27" viewBox="0 0 126 27" fill="none" xmlns="http://www.w3.org/2000/svg">
<path d="M26.2152 16.6482C24.4713 23.5941 17.4118 27.8398 10.3873 26.1023C3.41031 24.3662 -0.854425 17.3382 0.890874 10.345C2.63478 3.39916 9.69422 -0.846552 16.7187 0.890962C23.6957 2.62708 27.9605 9.65504 26.2152 16.6482Z" fill="black"/>
<path d="M19.303 11.6331C19.5615 9.89701 18.2368 8.96217 16.4287 8.35286L17.01 6.00464L15.5888 5.65129L15.0075 7.93274L13.8449 7.67538L14.4262 5.39393L13.0051 5.04059L12.4238 7.38881L11.5197 7.16345L9.56343 6.68073L9.17636 8.19149L10.2104 8.44885C10.4111 8.47161 10.5946 8.57209 10.7215 8.72854C10.8483 8.885 10.9081 9.08486 10.8881 9.28491L10.2104 11.9559C10.2425 11.9559 10.3082 11.9879 10.3725 11.9879C10.3404 11.9879 10.2747 11.9559 10.2104 11.9559L9.27418 15.6869C9.2099 15.8482 9.01567 16.1376 8.6286 16.0402C8.6286 16.0722 7.59455 15.7829 7.59455 15.7829L6.89587 17.4244L8.76833 17.8751L9.80238 18.1325L9.22108 20.4974L10.6422 20.8507L11.2235 18.5025L12.3414 18.7919L11.7601 21.1401L13.1812 21.4934L13.7625 19.1285C16.2177 19.5792 18.0244 19.4179 18.8014 17.199C19.4162 15.4323 18.7692 14.4168 17.4767 13.7254C18.4464 13.5306 19.1256 12.9213 19.3184 11.6345L19.303 11.6331ZM16.0402 16.2322C15.5874 17.9989 12.6167 17.0363 11.6469 16.8109L12.4224 13.66C13.3922 13.8854 16.4929 14.3556 16.0556 16.2336L16.0402 16.2322ZM16.4929 11.6331C16.1059 13.2413 13.5864 12.4372 12.7788 12.2118L13.4774 9.35029C14.2851 9.57566 16.901 9.929 16.4818 11.6317L16.4929 11.6331Z" fill="#F8F8FC"/>
<path d="M38.7488 8.35008C39.815 8.35008 40.7051 8.54484 41.4946 8.89679C42.2701 9.28213 42.9157 9.76485 43.4006 10.4075C43.9176 11.0502 44.2725 11.7903 44.5185 12.6584C44.7557 13.5612 44.875 14.4907 44.8734 15.4239C44.879 16.8909 44.5936 18.3446 44.0336 19.7016C43.5052 21.0073 42.7263 22.198 41.7405 23.2072C40.7612 24.2055 39.5991 25.0082 38.317 25.5721C36.9617 26.1582 35.4977 26.454 34.0201 26.4402H32.9861C32.5012 26.4402 31.9199 26.3762 31.2743 26.2788L29.2398 25.8935C28.5411 25.7321 27.8508 25.4761 27.2052 25.1979L32.9232 1.30407L38.0263 0.5L35.9918 8.99C36.4445 8.79524 36.8637 8.63665 37.3165 8.53927C37.7785 8.40748 38.257 8.3419 38.7376 8.34452L38.7488 8.35008ZM34.4533 22.4365C35.2288 22.4365 35.9387 22.2418 36.6192 21.8898C37.3036 21.505 37.9067 20.992 38.3952 20.3791C38.8801 19.767 39.2672 19.0603 39.5578 18.2562C39.8485 17.4522 39.977 16.6481 39.977 15.78C39.977 14.7186 39.815 13.9159 39.46 13.3039C39.1051 12.7251 38.4581 12.4038 37.5219 12.4038C37.2005 12.4038 36.8232 12.4678 36.3272 12.5652C35.8311 12.6625 35.3909 12.9185 35.0025 13.2607L32.8366 22.2654C32.9651 22.2974 33.0951 22.2974 33.1915 22.3294C33.2879 22.3614 33.3871 22.3614 33.5129 22.3934C33.6107 22.3934 33.7714 22.4254 33.8999 22.4254H34.4491L34.4533 22.4365ZM50.2155 26.0535H45.3247L49.4469 8.73959H54.3573L50.2155 26.0535ZM52.5742 6.63066C51.9085 6.63949 51.2594 6.42375 50.7325 6.01857C50.1834 5.60123 49.8941 4.98914 49.8941 4.15447C49.8941 3.70375 49.9919 3.25441 50.1847 2.86768C50.3645 2.47118 50.6166 2.11129 50.9281 1.80626C51.2496 1.52275 51.6083 1.28407 51.9943 1.09679C52.4135 0.935421 52.8327 0.839432 53.2869 0.839432C53.9526 0.830603 54.6017 1.04634 55.1286 1.45152C55.6778 1.86886 55.967 2.48095 55.967 3.31562C55.967 3.76635 55.8692 4.21568 55.6764 4.60241C55.4966 4.99891 55.2445 5.3588 54.933 5.66383C54.6423 5.95318 54.2553 6.17854 53.8668 6.35939C53.4783 6.54024 53.0591 6.61675 52.5742 6.61675V6.63066ZM58.6471 4.44104L63.7838 3.63697L62.5234 8.75072H68.015L67.0131 12.785H61.5537L60.1004 18.8308C59.9824 19.2946 59.9067 19.7681 59.874 20.2455C59.8433 20.6949 59.9062 21.0496 60.0361 21.3584C60.0992 21.5227 60.1947 21.6728 60.3168 21.7998C60.4389 21.9269 60.5853 22.0285 60.7474 22.0985C61.1023 22.2599 61.5858 22.3559 62.2006 22.3559C62.7177 22.3559 63.2347 22.2919 63.7377 22.1945C64.2445 22.0999 64.7417 21.9597 65.2231 21.7758L65.578 25.5387C64.8802 25.7847 64.1681 25.9886 63.4457 26.1494C62.6701 26.3442 61.7661 26.4068 60.6999 26.4068C59.1823 26.4068 58.0169 26.1814 57.1785 25.7321C56.3401 25.2828 55.7574 24.6707 55.4039 23.8986C55.0504 23.1265 54.8869 22.2265 54.9511 21.2277C54.9833 20.2302 55.1468 19.1688 55.4039 18.0281L58.6471 4.44104ZM67.7887 19.1382C67.791 17.7047 68.0313 16.2814 68.4999 14.9259C68.9615 13.6581 69.6631 12.4903 70.5666 11.4857C71.4707 10.4882 72.569 9.71894 73.8616 9.13745C75.1541 8.55596 76.5752 8.2694 78.1585 8.2694C79.1604 8.2694 80.0309 8.36678 80.8078 8.55875C81.5848 8.75072 82.2932 8.97608 82.9402 9.29882L81.2606 13.1244C80.8078 12.9296 80.3565 12.8044 79.9052 12.6417C79.4203 12.4803 78.839 12.4163 78.1613 12.4163C76.5124 12.4163 75.2547 12.963 74.285 14.0884C73.3152 15.2139 72.8317 16.6926 72.8317 18.5901C72.8317 19.703 73.0902 20.6156 73.5751 21.2917C74.06 21.9872 74.9641 22.3211 76.258 22.3211C76.8772 22.3238 77.4948 22.259 78.0998 22.1277C78.6407 22.0133 79.1705 21.8517 79.683 21.645L80.0379 25.5679L78.0033 26.2106C77.26 26.4054 76.3545 26.5 75.3204 26.5C73.965 26.5 72.801 26.3052 71.8648 25.9213C70.9728 25.5579 70.1687 25.0098 69.506 24.3132C68.8864 23.6441 68.4327 22.8399 68.1813 21.965C67.9196 21.0445 67.7893 20.092 67.7943 19.1354L67.7887 19.1382ZM89.4952 26.4903C88.3326 26.4903 87.2986 26.2955 86.4588 25.9755C85.5868 25.6222 84.8756 25.1409 84.3264 24.4968C83.7637 23.8349 83.3357 23.0705 83.066 22.246C82.7753 21.3779 82.6468 20.4125 82.6468 19.3844C82.6468 18.0656 82.8731 16.7469 83.2924 15.4295C83.6984 14.1414 84.345 12.9411 85.1983 11.8919C86.0368 10.8304 87.0708 9.96239 88.2669 9.3183C89.4617 8.64361 90.8521 8.32087 92.4339 8.32087C93.4684 8.3149 94.496 8.48909 95.4703 8.83558C96.3423 9.18892 97.0535 9.67025 97.6027 10.3143C98.1654 10.9762 98.5934 11.7407 98.8631 12.5652C99.1538 13.4332 99.2823 14.3987 99.2823 15.4267C99.2823 16.7455 99.0867 18.0643 98.6675 19.3816C98.2483 20.699 97.6334 21.8898 96.8258 22.9193C96.0181 23.9807 94.984 24.8167 93.7572 25.4928C92.5303 26.1689 91.1078 26.4903 89.4952 26.4903ZM91.9504 12.4052C91.2665 12.4053 90.5999 12.6189 90.0444 13.0159C89.4952 13.4332 89.0425 13.9479 88.6554 14.592C88.2683 15.2361 88.0098 15.9108 87.817 16.6829C87.6242 17.455 87.5263 18.1616 87.5263 18.8391C87.5263 19.9325 87.722 20.7867 88.0434 21.4127C88.3983 22.0248 89.0453 22.3447 89.9494 22.3447C90.6928 22.3447 91.3048 22.15 91.8554 21.7326C92.4059 21.3153 92.8573 20.8006 93.2443 20.1565C93.6314 19.5124 93.8899 18.8377 94.0827 18.0657C94.2712 17.3621 94.3689 16.6375 94.3734 15.9094C94.3734 14.816 94.2113 13.9619 93.8564 13.3358C93.5014 12.7098 92.8545 12.4038 91.9504 12.4038V12.4052ZM104.615 26.0381H99.7239L103.86 8.73681H108.77L104.615 26.0381ZM106.973 6.61536C106.308 6.62418 105.659 6.40845 105.132 6.00327C104.582 5.58593 104.293 4.97384 104.293 4.13917C104.293 3.68844 104.391 3.23911 104.584 2.85238C104.764 2.45588 105.016 2.09599 105.327 1.79096C105.649 1.50745 106.007 1.26877 106.393 1.08149C106.813 0.920119 107.232 0.82413 107.686 0.82413C108.352 0.815301 109.001 1.03104 109.528 1.43622C110.077 1.85356 110.366 2.46565 110.366 3.30032C110.366 3.75104 110.268 4.20037 110.076 4.5871C109.896 4.98361 109.644 5.3435 109.332 5.64853C109.011 5.93204 108.652 6.17072 108.266 6.358C107.877 6.55276 107.458 6.61536 106.973 6.61536ZM112.3 9.50888L113.527 9.12354L115.045 8.7382C115.662 8.60061 116.288 8.50395 116.918 8.44885L119.277 8.32087C121.862 8.32087 123.637 9.06094 124.607 10.5717C125.576 12.0505 125.769 14.1093 125.124 16.6815L122.863 26.0075H117.952L120.118 16.8749L120.44 15.2027C120.504 14.656 120.504 14.2053 120.408 13.788C120.328 13.3934 120.11 13.0399 119.793 12.7905C119.469 12.5332 118.985 12.4052 118.307 12.4052C117.662 12.4052 117.015 12.4692 116.369 12.5999L113.155 25.9783H108.245L112.3 9.50888Z" fill="black"/>
</svg>
